<?xml version="1.0" ?>
<!DOCTYPE svg  PUBLIC '-//W3C//DTD SVG 1.1//EN'  'http://www.w3.org/Graphics/SVG/1.1/DTD/svg11.dtd'>
<!-- Uploaded to: SVG Repo, www.svgrepo.com, Generator: SVG Repo Mixer Tools -->
<svg fill="#000000" width="800px" height="800px" viewBox="0 0 512 512" version="1.1" xml:space="preserve" xmlns="http://www.w3.org/2000/svg" xmlns:xlink="http://www.w3.org/1999/xlink">
<g id="_x31_68_x2C__agriculture_x2C__urban_x2C__ecology_x2C__environment_x2C__farming">
<g>
<path d="M51.596,355.984c-2.976,0.465-5.815,1.441-8.444,2.86    c1.572,2.512,3.559,4.769,5.885,6.675c2.885,2.373,6.328,4.187,10.188,5.233c3.861,1.023,7.742,1.187,11.431,0.581    c2.965-0.488,5.801-1.465,8.43-2.861c-1.558-2.511-3.544-4.79-5.871-6.697c-2.896-2.373-6.338-4.187-10.188-5.232    C60.131,355.774,54.537,355.496,51.596,355.984 M87.972,327.005c-2.839,2.837-4.91,6.116-6.233,9.605    c-1.049,2.813-1.628,5.768-1.723,8.745c2.965-0.117,5.92-0.675,8.735-1.744c2.614-0.978,7.524-4.141,9.605-6.211    c2.825-2.837,4.906-6.14,6.222-9.629c1.056-2.791,1.625-5.744,1.73-8.721c-2.965,0.093-5.917,0.674-8.731,1.721    C94.773,321.842,90.088,324.889,87.972,327.005z M45.875,334.633c-2.965,0.488-5.815,1.465-8.444,2.861    c1.534,2.465,3.454,4.697,5.7,6.559l0.186,0.139c2.895,2.373,6.349,4.188,10.185,5.211c0.744,0.209,1.502,0.372,2.256,0.512    c1.814-0.023,3.653,0.116,5.489,0.418c1.246-0.023,2.478-0.139,3.699-0.349c2.955-0.489,5.791-1.442,8.419-2.86    c-1.558-2.512-3.534-4.769-5.872-6.676c-2.874-2.395-6.328-4.186-10.177-5.232C54.411,334.447,48.816,334.145,45.875,334.633z     M88.52,300.979c-1.457,1.187-2.99,2.232-4.573,3.141c-0.579,0.488-1.151,1-1.695,1.558c-2.829,2.814-4.91,6.116-6.222,9.605    c-1.06,2.814-1.639,5.769-1.734,8.722c2.976-0.093,5.931-0.674,8.735-1.721c2.801-1.07,7.475-4.117,9.605-6.233    c2.825-2.837,4.917-6.116,6.219-9.605c1.07-2.814,1.643-5.769,1.744-8.722c-2.976,0.093-5.931,0.674-8.742,1.721    C90.727,299.862,89.601,300.374,88.52,300.979z M94.879,276.371c-2.976,0.094-5.931,0.675-8.746,1.745    c-3.489,1.302-6.791,3.396-9.592,6.21c-2.829,2.814-4.91,6.117-6.222,9.605c-1.07,2.814-1.653,5.768-1.744,8.745    c2.976-0.093,5.931-0.675,8.731-1.745c1.141-0.418,2.267-0.93,3.352-1.512c1.453-1.186,2.976-2.232,4.569-3.139    c0.579-0.489,1.141-1.023,1.699-1.559c2.825-2.838,4.906-6.117,6.219-9.605C94.205,282.303,94.788,279.349,94.879,276.371z     M34.431,291.955c-2.955,0.488-5.801,1.465-8.43,2.86c1.569,2.535,3.544,4.791,5.882,6.698c2.875,2.372,6.317,4.187,10.178,5.233    c0.754,0.187,1.512,0.349,2.256,0.488c1.814,0,3.65,0.14,5.489,0.441c1.253-0.046,2.488-0.163,3.696-0.349    c2.965-0.488,5.815-1.465,8.444-2.86c-1.569-2.536-3.559-4.792-5.886-6.698c-2.881-2.373-6.324-4.187-10.185-5.233    C42.015,291.513,38.13,291.35,34.431,291.955z M40.152,313.305c-2.952,0.489-5.812,1.467-8.43,2.861    c1.569,2.512,3.548,4.791,5.872,6.699c2.909,2.371,6.352,4.186,10.188,5.209c0.755,0.209,1.513,0.373,2.257,0.512    c1.814-0.023,3.65,0.116,5.489,0.419c1.256-0.023,2.488-0.14,3.699-0.349c2.952-0.489,5.812-1.466,8.43-2.861    c-1.569-2.512-3.548-4.791-5.872-6.698C55.969,314.306,47.606,312.073,40.152,313.305z M385.336,214.621H125.952V397.43h259.384    V214.621z M92.275,208.9c108.872,0,217.729,0,326.587,0L254.161,105.402L92.275,208.9z M180.188,276.906h-26.279v26.259h26.279    V276.906z M153.909,335.168h26.279v-26.281h-26.279V335.168z M212.191,276.906h-26.279v26.259h26.279V276.906z M185.912,335.168    h26.279v-26.281h-26.279V335.168z M215.055,340.89h-31.933h-0.07h-0.07h-31.933c-1.572,0-2.86-1.279-2.86-2.86v-31.91v-0.094    v-0.069v-31.91c0-1.581,1.288-2.86,2.86-2.86h31.933h0.07h0.07h31.933c1.569,0,2.86,1.279,2.86,2.86v31.91v0.069v0.094v31.91    C217.915,339.61,216.624,340.89,215.055,340.89z M325.379,276.906h-26.282v26.259h26.282V276.906z M299.097,335.168h26.282    v-26.281h-26.282V335.168z M357.383,276.906H331.1v26.259h26.283V276.906z M331.1,335.168h26.283v-26.281H331.1V335.168z     M360.242,340.89H328.32h-0.08h-0.07h-31.934c-1.572,0-2.85-1.279-2.85-2.86v-31.91v-0.094v-0.069v-31.91    c0-1.581,1.277-2.86,2.85-2.86h31.934h0.07h0.08h31.922c1.569,0,2.847,1.279,2.847,2.86v31.91v0.069v0.094v31.91    C363.089,339.61,361.812,340.89,360.242,340.89z M418.318,348.332l0.15,0.163c2.744,2.768,4.766,6.001,6.068,9.442    c1.06,2.814,1.643,5.768,1.733,8.745c-2.966-0.093-5.917-0.675-8.731-1.744c-3.488-1.303-6.78-3.372-9.605-6.21    c-2.829-2.838-4.91-6.117-6.223-9.605c-1.06-2.814-1.639-5.768-1.733-8.745c2.965,0.116,5.92,0.675,8.735,1.744    C411.503,343.169,416.202,346.216,418.318,348.332z M460.414,355.984c2.966,0.465,5.815,1.441,8.43,2.86    c-1.568,2.512-3.544,4.769-5.871,6.675c-2.885,2.373-6.327,4.187-10.188,5.233c-3.871,1.023-7.757,1.187-11.441,0.581    c-2.955-0.488-5.805-1.465-8.434-2.861c1.572-2.511,3.549-4.79,5.875-6.697c2.906-2.373,6.349-4.187,10.185-5.232    C451.865,355.774,457.459,355.496,460.414,355.984z M424.028,327.005c2.835,2.837,4.916,6.116,6.232,9.605    c1.057,2.813,1.628,5.768,1.73,8.745c-2.977-0.117-5.928-0.675-8.731-1.744c-2.805-1.047-7.49-4.094-9.605-6.211    c-2.84-2.837-4.921-6.14-6.233-9.629c-1.06-2.791-1.628-5.744-1.733-8.721c2.976,0.093,5.931,0.674,8.734,1.721    C417.223,321.842,421.912,324.889,424.028,327.005z M466.135,334.633c2.955,0.488,5.805,1.465,8.43,2.861    c-1.533,2.465-3.453,4.697-5.695,6.559l-0.176,0.139c-2.906,2.373-6.349,4.188-10.188,5.211c-2.896,0.791-8.5,1.069-11.44,0.581    c-2.966-0.489-5.805-1.442-8.434-2.86c1.572-2.512,3.548-4.769,5.875-6.676c2.885-2.395,6.324-4.186,10.188-5.232    C457.589,334.447,463.18,334.145,466.135,334.633z M429.748,305.677c2.836,2.814,4.906,6.116,6.223,9.605    c1.057,2.814,1.639,5.769,1.73,8.722c-2.966-0.093-5.917-0.674-8.732-1.721c-2.628-1-7.514-4.141-9.605-6.233    c-2.824-2.837-4.906-6.116-6.222-9.605c-1.057-2.814-1.639-5.769-1.733-8.722c2.965,0.093,5.92,0.674,8.734,1.721    C422.933,300.49,427.632,303.537,429.748,305.677z M417.132,276.371c2.966,0.094,5.917,0.675,8.731,1.745    c3.488,1.302,6.791,3.396,9.605,6.21c2.825,2.814,4.896,6.117,6.223,9.605c1.06,2.814,1.639,5.768,1.733,8.745    c-2.966-0.093-5.921-0.675-8.735-1.745c-2.93-1.093-7.475-4.093-9.605-6.209c-2.836-2.838-4.917-6.117-6.232-9.605    C417.806,282.303,417.223,279.349,417.132,276.371z M477.565,291.955c2.966,0.488,5.815,1.465,8.434,2.86    c-1.572,2.535-3.549,4.791-5.875,6.698c-2.882,2.372-6.324,4.187-10.185,5.233c-2.92,0.767-8.469,1.069-11.444,0.581    c-2.966-0.488-5.815-1.465-8.431-2.86c1.569-2.536,3.545-4.792,5.872-6.698c2.885-2.373,6.327-4.187,10.188-5.233    C469.984,291.513,473.88,291.35,477.565,291.955z M471.845,313.305c2.966,0.489,5.815,1.467,8.43,2.861    c-1.558,2.512-3.544,4.791-5.871,6.699c-2.896,2.371-6.338,4.186-10.188,5.209c-2.895,0.791-8.489,1.07-11.43,0.582    c-2.966-0.489-5.815-1.466-8.444-2.861c1.572-2.512,3.559-4.791,5.886-6.698c2.874-2.372,6.313-4.187,10.188-5.21    C463.299,313.096,468.904,312.816,471.845,313.305z M56.039,280.209c-0.396-1.535,0.499-3.093,2.021-3.488    c1.523-0.419,3.096,0.488,3.489,2l7.931,29.607c1.281-0.069,2.548-0.209,3.815-0.419c-1,1.651-1.85,3.396-2.534,5.187    l4.439,16.584c1.281-0.07,2.548-0.21,3.815-0.442c-1.011,1.675-1.85,3.419-2.534,5.187l4.443,16.582    c1.277-0.068,2.534-0.209,3.801-0.418c-1,1.651-1.85,3.396-2.523,5.164l10.49,39.189c0.407,1.512-0.499,3.094-2.021,3.488    c-1.526,0.396-3.095-0.488-3.492-2.023l-10.5-39.189c-1.478-1.187-3.067-2.256-4.766-3.187c1.197-0.466,2.358-0.954,3.499-1.534    l-4.443-16.584c-1.488-1.209-3.092-2.279-4.791-3.232c1.211-0.441,2.373-0.954,3.513-1.512l-4.443-16.606    c-1.488-1.187-3.081-2.279-4.78-3.21c1.197-0.441,2.373-0.953,3.502-1.535L56.039,280.209z M43.433,270.58    c-0.396-1.512,0.512-3.07,2.021-3.488c1.537-0.396,3.095,0.512,3.502,2.023l3.709,13.861c0.407,1.512-0.502,3.07-2.025,3.488    c-1.523,0.396-3.092-0.511-3.488-2.022L43.433,270.58z M61.342,265.789c-0.397-1.512,0.509-3.093,2.021-3.488    c1.537-0.419,3.095,0.488,3.502,2.023l3.709,13.838c0.393,1.535-0.502,3.094-2.025,3.489c-1.523,0.419-3.092-0.488-3.489-2.023    L61.342,265.789z M291.095,105.611c1.327,0.838,1.724,2.582,0.885,3.931c-0.839,1.325-2.594,1.721-3.92,0.884l-36.19-22.723    L81.76,196.457c-1.323,0.838-3.081,0.441-3.931-0.86c-0.835-1.325-0.442-3.093,0.884-3.931L250.22,81.98    c0.919-0.627,2.162-0.697,3.162-0.069L291.095,105.611z M85.319,414.455c-1.579,0-2.86-1.279-2.86-2.861    c0-1.581,1.281-2.86,2.86-2.86H333.9c1.583,0,2.863,1.279,2.863,2.86c0,1.582-1.28,2.861-2.863,2.861H85.319z M230.879,430.525    c-1.569,0-2.86-1.279-2.86-2.86s1.292-2.86,2.86-2.86h172.019c1.583,0,2.86,1.279,2.86,2.86s-1.277,2.86-2.86,2.86H230.879z     M420.504,430.525c-1.572,0-2.863-1.279-2.863-2.86s1.291-2.86,2.863-2.86h21.5c1.582,0,2.863,1.279,2.863,2.86    s-1.281,2.86-2.863,2.86H420.504z M75.527,430.038c-1.579,0-2.86-1.279-2.86-2.861s1.281-2.861,2.86-2.861h81.508    c1.569,0,2.86,1.279,2.86,2.861s-1.292,2.861-2.86,2.861H75.527z M450.135,278.721c0.407-1.512,1.966-2.419,3.488-2    c1.523,0.396,2.429,1.953,2.021,3.488l-7.896,29.469c1.221,0.627,2.487,1.186,3.793,1.674c-1.758,0.977-3.407,2.094-4.931,3.326    l-0.256,0.232l-4.327,16.118c1.231,0.628,2.488,1.187,3.79,1.651c-1.755,0.977-3.394,2.093-4.917,3.349l-0.271,0.21l-4.313,16.117    c1.221,0.629,2.478,1.187,3.769,1.675c-1.758,0.954-3.396,2.069-4.92,3.325l-0.245,0.21l-10.406,38.841    c-0.407,1.535-1.976,2.419-3.502,2.023c-1.523-0.395-2.429-1.977-2.021-3.488l10.626-39.655c-0.649-1.604-1.428-3.187-2.348-4.698    c1.162,0.186,2.327,0.326,3.503,0.396l4.569-17.024c-0.653-1.629-1.433-3.21-2.352-4.722c1.165,0.209,2.327,0.349,3.488,0.419    l4.573-17.049c-0.653-1.604-1.432-3.186-2.338-4.698c1.151,0.21,2.313,0.326,3.488,0.419L450.135,278.721z M462.728,269.115    c0.406-1.512,1.979-2.419,3.502-2.023c1.523,0.418,2.429,1.977,2.021,3.488l-3.709,13.862c-0.407,1.512-1.977,2.419-3.499,2.022    c-1.523-0.418-2.433-1.977-2.025-3.488L462.728,269.115z M444.818,264.324c0.407-1.535,1.979-2.442,3.502-2.023    c1.523,0.396,2.429,1.977,2.021,3.488l-3.709,13.839c-0.407,1.535-1.977,2.442-3.499,2.023c-1.523-0.396-2.418-1.954-2.025-3.489    L444.818,264.324z M112.019,340.378c-2.965,0.116-5.917,0.675-8.721,1.744c-2.79,1.047-7.489,4.094-9.605,6.21l-0.162,0.163    c-2.745,2.768-4.77,6.001-6.071,9.442c-1.046,2.814-1.628,5.768-1.734,8.745c2.965-0.093,5.92-0.675,8.735-1.744    c3.488-1.303,6.78-3.372,9.605-6.21c2.835-2.838,4.917-6.117,6.233-9.605C111.345,346.309,111.928,343.355,112.019,340.378z" style="fill-rule:evenodd;clip-rule:evenodd;"/>
</g>
</g>
<g id="Layer_1"/>
</svg>